Coordinates
version=1
nRows=13
nColumns=63
inDegrees=yes

Units are S.I. units (second, meters, Newtons, ...)
If the header above contains a line with 'inDegrees', this indicates whether rotational values are in degrees (yes) or radians (no).

endheader
time	pelvis_tilt	pelvis_list	pelvis_rotation	pelvis_tx	pelvis_ty	pelvis_tz	hip_flexion_r	hip_adduction_r	hip_rotation_r	knee_angle_r	knee_angle_r_beta	ankle_angle_r	subtalar_angle_r	mtp_angle_r	hip_flexion_l	hip_adduction_l	hip_rotation_l	knee_angle_l	knee_angle_l_beta	ankle_angle_l	subtalar_angle_l	mtp_angle_l	L5_S1_Flex_Ext	L5_S1_Lat_Bending	L5_S1_axial_rotation	L4_L5_Flex_Ext	L4_L5_Lat_Bending	L4_L5_axial_rotation	L3_L4_Flex_Ext	L3_L4_Lat_Bending	L3_L4_axial_rotation	L2_L3_Flex_Ext	L2_L3_Lat_Bending	L2_L3_axial_rotation	L1_L2_Flex_Ext	L1_L2_Lat_Bending	L1_L2_axial_rotation	L1_T12_Flex_Ext	L1_T12_Lat_Bending	L1_T12_axial_rotation	Abs_r3	Abs_r2	Abs_r1	Abs_t1	Abs_t2	neck_flexion	neck_bending	neck_rotation	arm_flex_r	arm_add_r	arm_rot_r	elbow_flex_r	pro_sup_r	wrist_flex_r	wrist_dev_r	arm_flex_l	arm_add_l	arm_rot_l	elbow_flex_l	pro_sup_l	wrist_flex_l	wrist_dev_l
2.084746	-1.535081	2.650837	81.329452	0.344579	0.967582	0.599145	-2.762338	-2.329232	18.078937	1.824590	0.031845	22.650374	-11.123490	0.000000	-2.646292	-0.253842	3.077287	0.959616	0.016748	28.917336	-1.393047	0.000000	-0.168747	-0.094094	0.729235	-0.313381	-0.125145	0.774813	-0.277235	-0.228780	0.774813	-0.192861	-0.228780	0.638081	-0.156699	-0.191876	0.592504	-0.096422	-0.145752	0.546927	-1.205345	-1.064410	4.055789	0.000000	0.000000	6.486332	0.600196	-0.888919	10.151080	-16.925065	-1.213112	112.790107	86.791165	-2.527702	6.541796	11.680107	-12.184579	-2.132985	106.718371	88.503071	-14.022351	6.787914
2.101695	-1.680673	2.481001	81.413456	0.344218	0.966302	0.600151	-2.485110	-2.466920	18.559697	1.801804	0.031447	23.199163	-11.412535	0.000000	-2.372351	-0.120976	3.682070	0.983738	0.017169	29.005930	-2.084596	0.000000	-0.164935	-0.100151	0.773436	-0.306301	-0.133201	0.821776	-0.270972	-0.243507	0.821776	-0.188504	-0.243507	0.676757	-0.153159	-0.204227	0.628417	-0.094244	-0.155134	0.580077	-1.178116	-1.132926	4.301621	0.000000	0.000000	7.024696	0.544590	-0.649355	8.723883	-16.008863	-1.050828	111.019097	86.695428	-2.939588	9.983685	10.729607	-11.758447	-0.508738	104.570609	88.659101	-15.160570	7.570259
2.118644	-1.852763	2.320997	81.575212	0.343880	0.964990	0.601028	-2.231034	-2.627927	18.949033	1.765173	0.030808	23.830079	-11.677059	0.000000	-2.107634	0.029075	4.379346	1.003665	0.017517	29.111522	-2.752592	0.000000	-0.161147	-0.113493	0.789935	-0.299266	-0.150946	0.839306	-0.264749	-0.275948	0.839306	-0.184175	-0.275948	0.691193	-0.149641	-0.231436	0.641822	-0.092079	-0.175801	0.592451	-1.151058	-1.283859	4.393381	0.000000	0.000000	7.591732	0.571246	-0.394681	7.460101	-15.086535	-0.730019	109.002889	86.656022	-3.352644	13.438433	9.729647	-11.424404	1.014779	102.445035	88.722018	-15.926893	8.438306
2.135593	-2.045391	2.183326	81.805874	0.343566	0.963673	0.601775	-2.009496	-2.807202	19.214564	1.722625	0.030065	24.534967	-11.894269	0.000000	-1.866606	0.193453	5.138597	1.019665	0.017797	29.242699	-3.378214	0.000000	-0.158799	-0.133627	0.780271	-0.294906	-0.177724	0.829038	-0.260891	-0.324901	0.829038	-0.181491	-0.324901	0.682737	-0.147461	-0.272492	0.633970	-0.090738	-0.206988	0.585203	-1.134285	-1.511615	4.339633	0.000000	0.000000	8.157569	0.671065	-0.170763	6.369091	-14.187916	-0.269028	106.732353	86.672944	-3.754390	16.746303	8.685062	-11.206558	2.469705	100.299304	88.771116	-16.220144	9.220123
2.152542	-2.239310	2.048558	82.076767	0.343285	0.962352	0.602384	-1.798693	-2.985701	19.376678	1.679046	0.029305	25.278266	-12.044744	0.000000	-1.634989	0.353439	5.911241	1.030679	0.017989	29.396804	-3.955655	0.000000	-0.153788	-0.157487	0.747062	-0.285600	-0.209457	0.793754	-0.252659	-0.382913	0.793754	-0.175765	-0.382913	0.653680	-0.142808	-0.321147	0.606988	-0.087875	-0.243947	0.560297	-1.098494	-1.781520	4.154937	0.000000	0.000000	8.692951	0.833859	-0.007396	5.442384	-13.342402	0.299165	104.197346	86.750364	-4.099963	19.722217	7.581354	-11.111073	3.861294	98.130826	88.798080	-16.028734	9.915185
2.169492	-2.424107	1.931557	82.337951	0.343093	0.961081	0.602854	-1.606630	-3.155406	19.455099	1.651768	0.028829	26.015289	-12.108294	0.000000	-1.438653	0.503315	6.627441	1.031992	0.018012	29.545538	-4.479646	0.000000	-0.148756	-0.183574	0.698080	-0.276254	-0.244154	0.741710	-0.244391	-0.446343	0.741710	-0.170013	-0.446343	0.610820	-0.138135	-0.374345	0.567190	-0.084999	-0.284357	0.523560	-1.062548	-2.076629	3.882512	0.000000	0.000000	9.199756	1.036613	0.052408	4.678419	-12.579368	0.963761	101.377167	86.891752	-4.395851	22.073930	6.439062	-11.175806	5.225181	95.941962	88.814707	-15.382493	10.399582
2.186441	-2.588839	1.833640	82.644544	0.342858	0.959923	0.603168	-1.452739	-3.306132	19.434703	1.633962	0.028518	26.660964	-12.172101	0.000000	-1.272967	0.634808	7.262405	1.032212	0.018016	29.687045	-4.846309	0.000000	-0.143928	-0.208846	0.627307	-0.267289	-0.277765	0.666514	-0.236460	-0.507787	0.666514	-0.164496	-0.507787	0.548894	-0.133652	-0.425878	0.509687	-0.082241	-0.323502	0.470480	-1.028066	-2.362503	3.488894	0.000000	0.000000	9.644241	1.213576	0.006422	4.049761	-11.967881	1.726225	98.309332	87.054777	-4.704792	23.699024	5.323464	-11.439741	6.681658	93.738559	88.811205	-14.606434	10.582644
2.203390	-2.714456	1.749885	82.997512	0.342520	0.958918	0.603283	-1.341015	-3.419649	19.329877	1.625155	0.028364	27.162486	-12.268753	0.000000	-1.132464	0.732791	7.812106	1.040151	0.018154	29.816642	-5.049669	0.000000	-0.139246	-0.228975	0.533456	-0.258593	-0.304536	0.566797	-0.228767	-0.556729	0.566797	-0.159144	-0.556729	0.466774	-0.129304	-0.466925	0.433433	-0.079565	-0.354682	0.400092	-0.994619	-2.590208	2.966925	0.000000	0.000000	10.039254	1.344177	-0.081758	3.547322	-11.549799	2.557299	95.056763	87.239956	-4.926784	24.692539	4.235280	-11.863020	8.131430	91.649017	88.799584	-13.786900	10.646272
2.220339	-2.793425	1.673127	83.411323	0.342047	0.958101	0.603179	-1.270839	-3.486601	19.142434	1.620993	0.028292	27.493294	-12.415737	0.000000	-1.005534	0.790034	8.274206	1.061675	0.018530	29.930680	-5.068371	0.000000	-0.133581	-0.241696	0.415237	-0.248073	-0.321456	0.441190	-0.219460	-0.587660	0.441190	-0.152669	-0.587660	0.363333	-0.124043	-0.492867	0.337380	-0.076328	-0.374387	0.311428	-0.954153	-2.734114	2.309425	0.000000	0.000000	10.368795	1.433578	-0.106294	3.150023	-11.352551	3.427764	91.690477	87.453347	-4.967566	25.155676	3.216801	-12.423644	9.493824	89.790202	88.789435	-12.948404	10.766178
2.237288	-2.829673	1.610659	83.874725	0.341456	0.957517	0.602849	-1.248181	-3.511137	18.912631	1.622203	0.028313	27.650974	-12.635440	0.000000	-0.903372	0.810457	8.655348	1.091036	0.019042	30.014782	-4.930972	0.000000	-0.127531	-0.246793	0.284487	-0.236838	-0.328234	0.302267	-0.209521	-0.600052	0.302267	-0.145755	-0.600052	0.248926	-0.118425	-0.503260	0.231146	-0.072871	-0.382282	0.213365	-0.910941	-2.791769	1.582230	0.000000	0.000000	10.620732	1.442693	-0.060764	2.796087	-11.389781	4.293226	88.321287	87.674293	-4.873285	25.205823	2.390237	-13.141439	10.810608	88.248839	88.785481	-12.163561	11.083547
2.254237	-2.830580	1.564389	84.408410	0.340725	0.957187	0.602306	-1.275757	-3.498530	18.601362	1.624609	0.028355	27.663373	-12.895794	0.000000	-0.820373	0.799743	8.960449	1.132990	0.019774	30.076942	-4.608349	0.000000	-0.120734	-0.244302	0.145849	-0.224214	-0.324921	0.154965	-0.198353	-0.593995	0.154965	-0.137986	-0.593995	0.127618	-0.112113	-0.498180	0.118503	-0.068987	-0.378423	0.109387	-0.862387	-2.763588	0.811170	0.000000	0.000000	10.775105	1.392411	0.151736	2.422542	-11.640317	5.088035	85.068046	87.874742	-4.665182	25.001906	1.848521	-14.046633	12.061432	87.113173	88.793445	-11.363283	11.730444
2.271186	-2.800428	1.548403	85.016996	0.339871	0.957131	0.601537	-1.371880	-3.451890	18.196125	1.618373	0.028246	27.567979	-13.192465	0.000000	-0.772481	0.762376	9.173357	1.184133	0.020667	30.148069	-4.085574	0.000000	-0.114716	-0.234660	0.006999	-0.213040	-0.312098	0.007437	-0.188467	-0.570552	0.007437	-0.131109	-0.570552	0.006124	-0.106526	-0.478519	0.005687	-0.065549	-0.363488	0.005250	-0.819407	-2.654520	0.038929	0.000000	0.000000	10.820131	1.280838	0.559133	1.969352	-12.071557	5.755236	82.057440	88.019382	-4.402708	24.749684	1.656910	-15.178836	13.221287	86.461486	88.818665	-10.557205	12.688818
2.288136	-2.738507	1.558244	85.696937	0.338887	0.957338	0.600622	-1.526980	-3.370188	17.692714	1.597871	0.027888	27.388526	-13.492641	0.000000	-0.749127	0.696324	9.272700	1.245381	0.021736	30.243600	-3.342747	0.000000	-0.109855	-0.217611	-0.129002	-0.204011	-0.289423	-0.137065	-0.180480	-0.529100	-0.137065	-0.125553	-0.529100	-0.112877	-0.102011	-0.443753	-0.104814	-0.062771	-0.337080	-0.096752	-0.784681	-2.461661	-0.717473	0.000000	0.000000	10.773284	1.110014	1.179579	1.425565	-12.642292	6.264110	79.398546	88.083078	-4.128388	24.694063	1.823849	-16.555135	14.186857	86.343225	88.865738	-9.771235	13.728517
